<svg width="255" height="64" viewBox="0 0 255 64" fill="none" xmlns="http://www.w3.org/2000/svg">
<path d="M244.497 45.493L242.289 0L252.271 0L249.974 45.493H244.497Z" fill="black" style="fill:black;fill-opacity:1;"/>
<path d="M216.842 61.6599C211.424 61.6599 207.301 59.7165 204.474 55.8298C201.648 51.8841 200.234 45.73 200.234 37.3676C200.234 29.0051 201.648 22.8805 204.474 18.9937C207.301 15.048 211.424 13.0752 216.842 13.0752C222.259 13.0752 226.382 15.048 229.209 18.9937C232.035 22.8805 233.449 29.0051 233.449 37.3676C233.449 45.73 232.035 51.8841 229.209 55.8298C226.382 59.7165 222.259 61.6599 216.842 61.6599ZM216.842 55.2114C219.845 55.2114 222.083 53.8569 223.555 51.148C225.086 48.439 225.852 44.405 225.852 39.0459V35.6892C225.852 30.3301 225.086 26.2961 223.555 23.5872C222.083 20.8782 219.845 19.5237 216.842 19.5237C213.838 19.5237 211.571 20.8782 210.04 23.5872C208.567 26.2961 207.831 30.3301 207.831 35.6892V39.0459C207.831 44.405 208.567 48.439 210.04 51.148C211.571 53.8569 213.838 55.2114 216.842 55.2114Z" fill="black" style="fill:black;fill-opacity:1;"/>
<path d="M97.6853 61.6599C92.2673 61.6599 88.145 59.7165 85.3182 55.8298C82.4915 51.8841 81.0781 45.73 81.0781 37.3676C81.0781 29.0051 82.4915 22.8805 85.3182 18.9937C88.145 15.048 92.2673 13.0752 97.6853 13.0752C103.103 13.0752 107.226 15.048 110.052 18.9937C112.879 22.8805 114.292 29.0051 114.292 37.3676C114.292 45.73 112.879 51.8841 110.052 55.8298C107.226 59.7165 103.103 61.6599 97.6853 61.6599ZM97.6853 55.2114C100.689 55.2114 102.927 53.8569 104.399 51.148C105.93 48.439 106.696 44.405 106.696 39.0459V35.6892C106.696 30.3301 105.93 26.2961 104.399 23.5872C102.927 20.8782 100.689 19.5237 97.6853 19.5237C94.6819 19.5237 92.4146 20.8782 90.8834 23.5872C89.4111 26.2961 88.675 30.3301 88.675 35.6892V39.0459C88.675 44.405 89.4111 48.439 90.8834 51.148C92.4146 53.8569 94.6819 55.2114 97.6853 55.2114Z" fill="black" style="fill:black;fill-opacity:1;"/>
<path d="M177.616 61.6585C174.142 61.6585 171.345 60.6279 169.225 58.5667C167.163 56.4467 166.133 52.7955 166.133 47.6131V14.1338H173.376V47.0831C173.376 50.3221 173.965 52.501 175.143 53.6199C176.38 54.68 177.97 55.21 179.913 55.21C182.21 55.21 184.212 54.0911 185.92 51.8532C187.687 49.6154 188.57 46.4942 188.57 42.4896V14.1338H195.814V60.5985H190.337L189.365 55.21H188.835C187.54 57.5067 185.92 59.1556 183.977 60.1568C182.033 61.1579 179.913 61.6585 177.616 61.6585Z" fill="black" style="fill:black;fill-opacity:1;"/>
<path d="M58.4592 61.6595C54.9847 61.6595 52.1874 60.6289 50.0673 58.5677C48.0062 56.4477 46.9756 52.7964 46.9756 47.6141V14.1348H54.2191V47.084C54.2191 50.323 54.808 52.502 55.9858 53.6209C57.2226 54.6809 58.8126 55.2109 60.756 55.2109C63.0527 55.2109 65.055 54.092 66.7628 51.8542C68.5295 49.6163 69.4129 46.4951 69.4129 42.4906V14.1348H76.6564V60.5994H71.1796L70.2079 55.2109H69.6779C68.3823 57.5077 66.7628 59.1566 64.8194 60.1578C62.876 61.1589 60.756 61.6595 58.4592 61.6595Z" fill="black" style="fill:black;fill-opacity:1;"/>
<path d="M119.155 60.5984V0L137.971 0C145.155 0 150.78 2.47341 154.843 7.42021C158.906 12.3081 160.938 19.64 160.938 29.4158C160.938 39.7806 158.906 47.5836 154.843 52.8249C150.78 58.0072 145.155 60.5984 137.971 60.5984H119.155ZM126.929 53.5315H137.264C142.034 53.5315 145.803 51.7354 148.571 48.1431C151.398 44.4918 152.811 38.9856 152.811 31.6242V27.2075C152.811 20.435 151.398 15.3999 148.571 12.102C145.803 8.74526 142.034 7.06688 137.264 7.06688H126.929V53.5315Z" fill="black" style="fill:black;fill-opacity:1;"/>
<path d="M0 60.5984L0 0L18.8155 0C26.0002 0 31.6242 2.47341 35.6877 7.42021C39.7511 12.3081 41.7829 19.64 41.7829 29.4158C41.7829 39.7806 39.7511 47.5836 35.6877 52.8249C31.6242 58.0072 26.0002 60.5984 18.8155 60.5984H0ZM7.77356 53.5315H18.1089C22.879 53.5315 26.648 51.7354 29.4159 48.1431C32.2426 44.4918 33.656 38.9856 33.656 31.6242V27.2075C33.656 20.435 32.2426 15.3999 29.4159 12.102C26.648 8.74526 22.879 7.06688 18.1089 7.06688H7.77356V53.5315Z" fill="black" style="fill:black;fill-opacity:1;"/>
<path d="M243.908 52.3852L244.968 51.4974C245.242 51.621 245.529 51.7668 245.829 51.9346C246.13 52.1025 246.413 52.2747 246.678 52.4514C246.951 52.6281 247.172 52.7959 247.34 52.9549L246.227 53.9354C246.068 53.7764 245.856 53.6042 245.591 53.4187C245.326 53.2332 245.048 53.0477 244.756 52.8622C244.465 52.6767 244.182 52.5177 243.908 52.3852ZM249.884 50.0928H250.176L250.441 50.0133L251.461 50.6229C251.037 51.4179 250.494 52.129 249.831 52.7562C249.169 53.3745 248.422 53.9134 247.592 54.3727C246.77 54.8321 245.896 55.2252 244.968 55.552C244.041 55.87 243.1 56.1262 242.146 56.3205C242.075 56.1173 241.969 55.8833 241.828 55.6182C241.695 55.3444 241.558 55.1236 241.417 54.9557C242.309 54.8144 243.188 54.6112 244.054 54.3462C244.92 54.0724 245.732 53.7411 246.492 53.3524C247.252 52.9638 247.923 52.5177 248.506 52.0141C249.089 51.5018 249.548 50.9364 249.884 50.3181V50.0928ZM245.684 50.0928H250.242V51.3914H245.684V50.0928ZM246.426 49.0461L248.162 49.4171C247.481 50.1856 246.686 50.8834 245.776 51.5106C244.875 52.1378 243.811 52.6987 242.583 53.1934C242.504 53.0698 242.402 52.9328 242.278 52.7827C242.164 52.6325 242.035 52.4867 241.894 52.3454C241.762 52.2041 241.638 52.0936 241.523 52.0141C242.3 51.7668 243.003 51.4797 243.63 51.1529C244.257 50.826 244.805 50.4859 245.273 50.1326C245.741 49.7704 246.125 49.4082 246.426 49.0461ZM245.71 57.407L246.863 56.506C247.137 56.6562 247.424 56.824 247.724 57.0095C248.025 57.195 248.312 57.3894 248.586 57.5926C248.859 57.7869 249.08 57.968 249.248 58.1358L248.016 59.1163C247.866 58.9485 247.658 58.763 247.393 58.5598C247.137 58.3567 246.859 58.1535 246.558 57.9503C246.267 57.7471 245.984 57.5661 245.71 57.407ZM251.554 54.916H251.872L252.15 54.8497L253.197 55.393C252.79 56.3824 252.256 57.2304 251.593 57.9371C250.94 58.6438 250.176 59.2356 249.301 59.7126C248.435 60.1896 247.486 60.5739 246.452 60.8654C245.428 61.1569 244.345 61.3822 243.206 61.5412C243.144 61.3292 243.047 61.0818 242.914 60.7991C242.782 60.5165 242.649 60.2824 242.517 60.0969C243.568 59.9909 244.571 59.8186 245.525 59.5801C246.479 59.3416 247.353 59.028 248.148 58.6393C248.943 58.2418 249.628 57.756 250.202 57.1818C250.785 56.5988 251.236 55.9186 251.554 55.1412V54.916ZM247.645 54.916H251.978V56.241H247.645V54.916ZM248.572 53.6307L250.308 54.0282C249.575 54.9027 248.683 55.6933 247.632 56.4C246.589 57.0979 245.33 57.7118 243.855 58.2418C243.802 58.1093 243.718 57.968 243.603 57.8178C243.489 57.6588 243.369 57.5042 243.246 57.354C243.122 57.2039 243.003 57.0846 242.888 56.9963C243.815 56.7136 244.641 56.3956 245.366 56.0423C246.099 55.6801 246.731 55.2958 247.261 54.8895C247.799 54.4743 248.237 54.0547 248.572 53.6307Z" fill="black" style="fill:black;fill-opacity:1;"/>
</svg>
