<svg width="44" height="31" viewBox="0 0 44 31" fill="none" xmlns="http://www.w3.org/2000/svg">
<path d="M19.9641 15.524C19.9641 14.9978 19.7195 14.4359 19.1685 13.862C18.6155 13.2862 17.7846 12.7338 16.7095 12.2536C14.5614 11.294 11.5498 10.6726 8.19148 10.6726C7.83425 10.6726 7.54463 10.383 7.54463 10.0258C7.54463 9.66852 7.83425 9.37892 8.19148 9.37891C11.6922 9.37891 14.8905 10.0241 17.2373 11.0723C18.4096 11.596 19.3977 12.2328 20.1016 12.9659C20.8074 13.7009 21.2578 14.5675 21.2578 15.524C21.2578 16.4804 20.8074 17.347 20.1016 18.0821C19.3977 18.8151 18.4096 19.4519 17.2373 19.9756C14.8905 21.0239 11.6922 21.669 8.19148 21.669C4.13683 21.669 2.43345 21.2809 0.881837 20.6605C-0.29425 20.1902 -0.294694 18.4909 0.884996 18.0232C2.45243 17.4018 4.17471 17.0117 8.19148 17.0117C8.54873 17.0117 8.83833 17.3013 8.83833 17.6586C8.83833 18.0158 8.54873 18.3054 8.19148 18.3054C4.27141 18.3054 2.72591 18.685 1.36179 19.2258C1.33506 19.2364 1.32267 19.2494 1.31404 19.2632C1.30314 19.2806 1.29374 19.308 1.2937 19.342C1.29367 19.3761 1.30304 19.4038 1.31404 19.4214C1.32278 19.4353 1.33536 19.4485 1.36217 19.4593C2.70718 19.9971 4.23126 20.3753 8.19148 20.3753C11.5498 20.3753 14.5614 19.7539 16.7095 18.7943C17.7846 18.3141 18.6155 17.7618 19.1685 17.1859C19.7195 16.6121 19.9641 16.0501 19.9641 15.524Z" fill="black" style="fill:black;fill-opacity:1;"/>
<path d="M0.555664 30.3368V27.6142C0.555664 27.4084 0.653626 27.2148 0.819457 27.093C0.985269 26.9711 1.19916 26.9354 1.39556 26.9968C3.32606 27.6007 5.66728 28.0081 8.19126 28.0081C11.5496 28.0081 14.5611 27.3867 16.7093 26.4272C17.7844 25.9469 18.6153 25.3946 19.1682 24.8188C19.7193 24.2449 19.9639 23.6829 19.9639 23.1568C19.9639 22.6307 19.7193 22.0687 19.1682 21.4948C18.6153 20.919 17.7844 20.3666 16.7093 19.8864C14.5611 18.9269 11.5496 18.3054 8.19126 18.3054C7.83402 18.3054 7.54441 18.0158 7.54441 17.6586C7.54441 17.3013 7.83402 17.0117 8.19126 17.0117C11.692 17.0117 14.8902 17.6569 17.237 18.7051C18.4094 19.2288 19.3974 19.8657 20.1014 20.5987C20.8072 21.3337 21.2576 22.2003 21.2576 23.1568C21.2576 24.1132 20.8072 24.9798 20.1014 25.7149C19.3974 26.4479 18.4094 27.0847 17.237 27.6084C14.8902 28.6567 11.692 29.3018 8.19126 29.3018C5.88555 29.3018 3.72125 28.9793 1.84936 28.4753V30.3368C1.84936 30.694 1.55976 30.9837 1.20251 30.9837C0.845268 30.9837 0.555664 30.694 0.555664 30.3368Z" fill="black" style="fill:black;fill-opacity:1;"/>
<path d="M19.9643 7.89156C19.9643 7.36702 19.7212 6.8145 19.1728 6.25409C18.6217 5.69078 17.7924 5.1538 16.717 4.6889C14.5682 3.76 11.5545 3.16956 8.1917 3.16956C5.65545 3.16956 3.31257 3.50561 1.38854 4.07249C1.19297 4.13011 0.98166 4.09213 0.818379 3.97003C0.655083 3.84791 0.558881 3.65584 0.558881 3.45192V0.646849C0.558881 0.289611 0.848495 1.12016e-05 1.20573 0C1.56297 0 1.85258 0.289604 1.85258 0.646849V2.60672C3.72976 2.13998 5.89387 1.87586 8.1917 1.87586C11.688 1.87586 14.8841 2.48721 17.2303 3.50145C18.4023 4.00811 19.3919 4.62808 20.0976 5.34939C20.8062 6.07362 21.258 6.93353 21.258 7.89156C21.258 8.848 20.8077 9.71461 20.1018 10.4496C19.3979 11.1827 18.4099 11.8195 17.2375 12.3432C14.8907 13.3915 11.6924 14.0366 8.1917 14.0366C4.25189 14.0366 2.49071 13.6429 0.891654 13.0196C-0.293595 12.5576 -0.294038 10.8586 0.894687 10.399C2.50957 9.77467 4.29088 9.37931 8.1917 9.37931C8.54894 9.37931 8.83855 9.66891 8.83855 10.0262C8.83855 10.3834 8.54894 10.673 8.1917 10.673C4.39396 10.673 2.78242 11.0562 1.36125 11.6056C1.33343 11.6164 1.3219 11.6291 1.31463 11.6405C1.30507 11.6555 1.29659 11.6795 1.29657 11.7096C1.29655 11.7397 1.30499 11.7638 1.31463 11.779C1.322 11.7906 1.33361 11.8035 1.3615 11.8143C2.7637 12.3609 4.3529 12.7429 8.1917 12.7429C11.5501 12.7429 14.5616 12.1215 16.7098 11.1619C17.7849 10.6817 18.6157 10.1294 19.1687 9.55353C19.7197 8.97967 19.9643 8.41768 19.9643 7.89156Z" fill="black" style="fill:black;fill-opacity:1;"/>
<path d="M20.3271 9.14033C20.3517 9.09275 20.4102 9.07414 20.4578 9.09877C20.5054 9.1234 20.524 9.18194 20.4994 9.22953C19.8813 10.424 18.2661 11.502 16.0565 12.2812C13.8408 13.0626 11.0061 13.5512 7.91855 13.5512C4.31508 13.5512 2.55082 12.9951 1.10756 12.534C1.05655 12.5177 1.02839 12.4631 1.04464 12.4121C1.06095 12.3611 1.11564 12.3329 1.16668 12.3492C2.59812 12.8065 4.34158 13.3571 7.91855 13.3571C10.987 13.3571 13.7995 12.8713 15.9919 12.0981C18.1904 11.3229 19.7444 10.2663 20.3271 9.14033Z" fill="#FFE100" style="fill:#FFE100;fill:color(display-p3 1.0000 0.8833 0.0000);fill-opacity:1;"/>
<path d="M20.8054 15.5567C20.8589 15.559 20.9005 15.6041 20.8982 15.6577C20.8644 16.4696 20.4081 17.2201 19.6642 17.8849C18.9199 18.5499 17.8796 19.1372 16.6559 19.6248C14.2081 20.6002 11.0073 21.1842 7.91855 21.1842C4.31508 21.1842 2.55082 20.6281 1.10756 20.167C1.05655 20.1507 1.02839 20.0961 1.04464 20.0451C1.06095 19.9941 1.11564 19.9659 1.16668 19.9822C2.59812 20.4395 4.34158 20.9901 7.91855 20.9901C10.9859 20.9901 14.1619 20.4098 16.584 19.4446C17.7953 18.962 18.8134 18.3849 19.5349 17.7401C20.2567 17.095 20.6736 16.39 20.7044 15.6496C20.7067 15.596 20.7518 15.5545 20.8054 15.5567Z" fill="#FFE100" style="fill:#FFE100;fill:color(display-p3 1.0000 0.8833 0.0000);fill-opacity:1;"/>
<path d="M20.8054 23.1895C20.8589 23.1918 20.9005 23.2369 20.8982 23.2905C20.8644 24.1024 20.4081 24.8529 19.6642 25.5177C18.9199 26.1828 17.8796 26.77 16.6559 27.2576C14.2081 28.233 11.0073 28.817 7.91855 28.817C4.31508 28.817 2.55082 28.2609 1.10756 27.7999C1.05655 27.7835 1.02839 27.729 1.04464 27.6779C1.06095 27.6269 1.11564 27.5987 1.16668 27.615C2.59812 28.0723 4.34158 28.6229 7.91855 28.6229C10.9859 28.6229 14.1619 28.0426 16.584 27.0775C17.7953 26.5948 18.8134 26.0177 19.5349 25.3729C20.2567 24.7279 20.6736 24.0229 20.7044 23.2824C20.7067 23.2289 20.7518 23.1873 20.8054 23.1895Z" fill="#FFE100" style="fill:#FFE100;fill:color(display-p3 1.0000 0.8833 0.0000);fill-opacity:1;"/>
<path d="M8.37595 2.36035C10.8478 2.36035 13.2395 2.7477 15.2319 3.36398C17.2214 3.97934 18.8241 4.82643 19.7078 5.75403C19.7448 5.79283 19.7433 5.85427 19.7045 5.89124C19.6657 5.92819 19.6043 5.92673 19.5673 5.88795C18.7171 4.9954 17.1512 4.16071 15.1746 3.54932C13.2008 2.93883 10.8286 2.55441 8.37595 2.55441C5.93432 2.55441 3.61235 2.7487 1.81789 3.4063C1.76759 3.42471 1.71189 3.39885 1.69345 3.34856C1.67501 3.29825 1.70087 3.24256 1.75118 3.22412C3.57906 2.55428 5.92939 2.36035 8.37595 2.36035Z" fill="#FFE100" style="fill:#FFE100;fill:color(display-p3 1.0000 0.8833 0.0000);fill-opacity:1;"/>
<path d="M18.1285 12.1091C18.1537 12.0618 18.2124 12.0438 18.2597 12.069C19.029 12.4774 19.7714 13.0613 20.3638 13.917C20.3943 13.9611 20.3834 14.0215 20.3393 14.052C20.2953 14.0825 20.2349 14.0715 20.2044 14.0275C19.6325 13.2014 18.9155 12.6368 18.1687 12.2403C18.1214 12.2152 18.1034 12.1565 18.1285 12.1091Z" fill="#FFE100" style="fill:#FFE100;fill:color(display-p3 1.0000 0.8833 0.0000);fill-opacity:1;"/>
<path d="M18.1285 19.7478C18.1537 19.7005 18.2124 19.6825 18.2597 19.7076C19.029 20.1161 19.7714 20.7 20.3638 21.5557C20.3943 21.5998 20.3834 21.6601 20.3393 21.6906C20.2953 21.7211 20.2349 21.7102 20.2044 21.6661C19.6325 20.8401 18.9155 20.2754 18.1687 19.879C18.1214 19.8538 18.1034 19.7951 18.1285 19.7478Z" fill="#FFE100" style="fill:#FFE100;fill:color(display-p3 1.0000 0.8833 0.0000);fill-opacity:1;"/>
<path d="M8.37595 9.73535C11.429 9.73535 14.3603 10.3262 16.5687 11.2102C16.6184 11.2301 16.6427 11.2867 16.6228 11.3364C16.6028 11.3861 16.5464 11.4103 16.4967 11.3904C14.3129 10.5161 11.4061 9.92941 8.37595 9.92941C5.93432 9.92941 3.61235 10.1237 1.81789 10.7813C1.76759 10.7997 1.71189 10.7739 1.69345 10.7236C1.67501 10.6733 1.70087 10.6176 1.75118 10.5991C3.57906 9.92928 5.92939 9.73535 8.37595 9.73535Z" fill="#FFE100" style="fill:#FFE100;fill:color(display-p3 1.0000 0.8833 0.0000);fill-opacity:1;"/>
<path d="M8.37595 17.3682C11.429 17.3682 14.3603 17.959 16.5687 18.843C16.6184 18.8629 16.6427 18.9195 16.6228 18.9692C16.6028 19.019 16.5464 19.0431 16.4967 19.0232C14.3129 18.149 11.4061 17.5622 8.37595 17.5622C5.93432 17.5622 3.61235 17.7565 1.81789 18.4141C1.76759 18.4325 1.71189 18.4067 1.69345 18.3564C1.67501 18.3061 1.70087 18.2504 1.75118 18.2319C3.57906 17.5621 5.92939 17.3682 8.37595 17.3682Z" fill="#FFE100" style="fill:#FFE100;fill:color(display-p3 1.0000 0.8833 0.0000);fill-opacity:1;"/>
<path d="M0.911133 3.3636V0.646832C0.911133 0.593245 0.954573 0.549805 1.00816 0.549805C1.06175 0.549805 1.10519 0.593245 1.10519 0.646832V3.3636C1.10519 3.41718 1.06175 3.46062 1.00816 3.46062C0.954573 3.46062 0.911133 3.41718 0.911133 3.3636Z" fill="#FFE100" style="fill:#FFE100;fill:color(display-p3 1.0000 0.8833 0.0000);fill-opacity:1;"/>
<path d="M0.911133 30.4023V28.3324C0.911133 28.2788 0.954573 28.2354 1.00816 28.2354C1.06175 28.2354 1.10519 28.2788 1.10519 28.3324V30.4023C1.10519 30.4559 1.06175 30.4993 1.00816 30.4993C0.954573 30.4993 0.911133 30.4559 0.911133 30.4023Z" fill="#FFE100" style="fill:#FFE100;fill:color(display-p3 1.0000 0.8833 0.0000);fill-opacity:1;"/>
<path d="M42.7063 15.524C42.7063 14.9978 42.4617 14.4359 41.9106 13.862C41.3577 13.2862 40.5268 12.7338 39.4517 12.2536C37.3036 11.294 34.292 10.6726 30.9337 10.6726C30.5764 10.6726 30.2868 10.383 30.2868 10.0258C30.2868 9.66852 30.5764 9.37892 30.9337 9.37891C34.4344 9.37891 37.6326 10.0241 39.9794 11.0723C41.1518 11.596 42.1398 12.2328 42.8438 12.9659C43.5496 13.7009 44 14.5675 44 15.524C44 16.4804 43.5496 17.347 42.8438 18.0821C42.1398 18.8151 41.1518 19.4519 39.9794 19.9756C37.6326 21.0239 34.4344 21.669 30.9337 21.669C26.879 21.669 25.1756 21.2809 23.624 20.6605C22.4479 20.1902 22.4475 18.4909 23.6272 18.0232C25.1946 17.4018 26.9169 17.0117 30.9337 17.0117C31.2909 17.0117 31.5805 17.3013 31.5805 17.6586C31.5805 18.0158 31.2909 18.3054 30.9337 18.3054C27.0136 18.3054 25.4681 18.685 24.104 19.2258C24.0772 19.2364 24.0649 19.2494 24.0562 19.2632C24.0453 19.2806 24.0359 19.308 24.0359 19.342C24.0359 19.3761 24.0452 19.4038 24.0562 19.4214C24.065 19.4353 24.0775 19.4485 24.1044 19.4593C25.4494 19.9971 26.9735 20.3753 30.9337 20.3753C34.292 20.3753 37.3036 19.7539 39.4517 18.7943C40.5268 18.3141 41.3577 17.7618 41.9106 17.1859C42.4617 16.6121 42.7063 16.0501 42.7063 15.524Z" fill="black" style="fill:black;fill-opacity:1;"/>
<path d="M23.2979 30.3368V27.6142C23.2979 27.4084 23.3958 27.2148 23.5616 27.093C23.7275 26.9711 23.9413 26.9354 24.1377 26.9968C26.0682 27.6007 28.4095 28.0081 30.9334 28.0081C34.2918 28.0081 37.3033 27.3867 39.4515 26.4272C40.5266 25.9469 41.3574 25.3946 41.9104 24.8188C42.4615 24.2449 42.7061 23.6829 42.7061 23.1568C42.7061 22.6307 42.4615 22.0687 41.9104 21.4948C41.3574 20.919 40.5266 20.3666 39.4515 19.8864C37.3033 18.9269 34.2918 18.3054 30.9334 18.3054C30.5762 18.3054 30.2866 18.0158 30.2866 17.6586C30.2866 17.3013 30.5762 17.0117 30.9334 17.0117C34.4342 17.0117 37.6324 17.6569 39.9792 18.7051C41.1516 19.2288 42.1396 19.8657 42.8436 20.5987C43.5494 21.3337 43.9998 22.2003 43.9998 23.1568C43.9998 24.1132 43.5494 24.9798 42.8436 25.7149C42.1396 26.4479 41.1516 27.0847 39.9792 27.6084C37.6324 28.6567 34.4342 29.3018 30.9334 29.3018C28.6277 29.3018 26.4634 28.9793 24.5915 28.4753V30.3368C24.5915 30.694 24.3019 30.9837 23.9447 30.9837C23.5875 30.9837 23.2979 30.694 23.2979 30.3368Z" fill="black" style="fill:black;fill-opacity:1;"/>
<path d="M42.7065 7.89156C42.7065 7.36702 42.4633 6.8145 41.915 6.25409C41.3639 5.69078 40.5346 5.1538 39.4592 4.6889C37.3104 3.76 34.2967 3.16956 30.9339 3.16956C28.3976 3.16956 26.0548 3.50561 24.1307 4.07249C23.9352 4.13011 23.7238 4.09213 23.5606 3.97003C23.3973 3.84791 23.3011 3.65584 23.3011 3.45192V0.646849C23.3011 0.289611 23.5907 1.12016e-05 23.9479 0C24.3052 0 24.5948 0.289604 24.5948 0.646849V2.60672C26.4719 2.13998 28.6361 1.87586 30.9339 1.87586C34.4302 1.87586 37.6263 2.48721 39.9725 3.50145C41.1445 4.00811 42.1341 4.62808 42.8398 5.34939C43.5484 6.07362 44.0002 6.93353 44.0002 7.89156C44.0002 8.848 43.5498 9.71461 42.844 10.4496C42.1401 11.1827 41.152 11.8195 39.9797 12.3432C37.6329 13.3915 34.4346 14.0366 30.9339 14.0366C26.9941 14.0366 25.2329 13.6429 23.6338 13.0196C22.4486 12.5576 22.4481 10.8586 23.6369 10.399C25.2518 9.77467 27.0331 9.37931 30.9339 9.37931C31.2911 9.37931 31.5807 9.66891 31.5807 10.0262C31.5807 10.3834 31.2911 10.673 30.9339 10.673C27.1361 10.673 25.5246 11.0562 24.1034 11.6056C24.0756 11.6164 24.0641 11.6291 24.0568 11.6405C24.0473 11.6555 24.0388 11.6795 24.0388 11.7096C24.0387 11.7397 24.0472 11.7638 24.0568 11.779C24.0642 11.7906 24.0758 11.8035 24.1037 11.8143C25.5059 12.3609 27.0951 12.7429 30.9339 12.7429C34.2922 12.7429 37.3038 12.1215 39.452 11.1619C40.527 10.6817 41.3579 10.1294 41.9109 9.55353C42.4619 8.97967 42.7065 8.41768 42.7065 7.89156Z" fill="black" style="fill:black;fill-opacity:1;"/>
<path d="M43.0712 9.14033C43.0958 9.09275 43.1544 9.07414 43.202 9.09877C43.2495 9.1234 43.2681 9.18194 43.2435 9.22953C42.6254 10.424 41.0102 11.502 38.8006 12.2812C36.5849 13.0626 33.7503 13.5512 30.6627 13.5512C27.0592 13.5512 25.295 12.9951 23.8517 12.534C23.8007 12.5177 23.7725 12.4631 23.7888 12.4121C23.8051 12.3611 23.8598 12.3329 23.9108 12.3492C25.3423 12.8065 27.0857 13.3571 30.6627 13.3571C33.7312 13.3571 36.5436 12.8713 38.736 12.0981C40.9345 11.3229 42.4886 10.2663 43.0712 9.14033Z" fill="#FFE100" style="fill:#FFE100;fill:color(display-p3 1.0000 0.8833 0.0000);fill-opacity:1;"/>
<path d="M43.5495 15.5567C43.603 15.559 43.6446 15.6041 43.6424 15.6577C43.6085 16.4696 43.1522 17.2201 42.4083 17.8849C41.6641 18.5499 40.6237 19.1372 39.4001 19.6248C36.9522 20.6002 33.7514 21.1842 30.6627 21.1842C27.0592 21.1842 25.295 20.6281 23.8517 20.167C23.8007 20.1507 23.7725 20.0961 23.7888 20.0451C23.8051 19.9941 23.8598 19.9659 23.9108 19.9822C25.3423 20.4395 27.0857 20.9901 30.6627 20.9901C33.73 20.9901 36.906 20.4098 39.3282 19.4446C40.5395 18.962 41.5575 18.3849 42.2791 17.7401C43.0009 17.095 43.4177 16.39 43.4486 15.6496C43.4508 15.596 43.496 15.5545 43.5495 15.5567Z" fill="#FFE100" style="fill:#FFE100;fill:color(display-p3 1.0000 0.8833 0.0000);fill-opacity:1;"/>
<path d="M43.5495 23.1895C43.603 23.1918 43.6446 23.2369 43.6424 23.2905C43.6085 24.1024 43.1522 24.8529 42.4083 25.5177C41.6641 26.1828 40.6237 26.77 39.4001 27.2576C36.9522 28.233 33.7514 28.817 30.6627 28.817C27.0592 28.817 25.295 28.2609 23.8517 27.7999C23.8007 27.7835 23.7725 27.729 23.7888 27.6779C23.8051 27.6269 23.8598 27.5987 23.9108 27.615C25.3423 28.0723 27.0857 28.6229 30.6627 28.6229C33.73 28.6229 36.906 28.0426 39.3282 27.0775C40.5395 26.5948 41.5575 26.0177 42.2791 25.3729C43.0009 24.7279 43.4177 24.0229 43.4486 23.2824C43.4508 23.2289 43.496 23.1873 43.5495 23.1895Z" fill="#FFE100" style="fill:#FFE100;fill:color(display-p3 1.0000 0.8833 0.0000);fill-opacity:1;"/>
<path d="M31.1191 2.36133C33.591 2.36133 35.9826 2.74867 37.9751 3.36495C39.9646 3.98032 41.5673 4.8274 42.451 5.75501C42.4879 5.7938 42.4865 5.85525 42.4477 5.89221C42.4089 5.92917 42.3475 5.92771 42.3105 5.88893C41.4602 4.99638 39.8944 4.16169 37.9177 3.55029C35.944 2.93981 33.5717 2.55538 31.1191 2.55538C28.6775 2.55538 26.3555 2.74967 24.5611 3.40728C24.5108 3.42569 24.4551 3.39983 24.4366 3.34954C24.4182 3.29923 24.444 3.24354 24.4943 3.2251C26.3222 2.55525 28.6726 2.36133 31.1191 2.36133Z" fill="#FFE100" style="fill:#FFE100;fill:color(display-p3 1.0000 0.8833 0.0000);fill-opacity:1;"/>
<path d="M40.8717 12.1082C40.8968 12.0608 40.9555 12.0429 41.0028 12.068C41.7722 12.4765 42.5146 13.0604 43.107 13.9161C43.1375 13.9601 43.1265 14.0205 43.0825 14.051C43.0384 14.0815 42.9781 14.0705 42.9476 14.0265C42.3756 13.2004 41.6587 12.6358 40.9119 12.2393C40.8646 12.2142 40.8466 12.1555 40.8717 12.1082Z" fill="#FFE100" style="fill:#FFE100;fill:color(display-p3 1.0000 0.8833 0.0000);fill-opacity:1;"/>
<path d="M40.8717 19.7478C40.8968 19.7005 40.9555 19.6825 41.0028 19.7076C41.7722 20.1161 42.5146 20.7 43.107 21.5557C43.1375 21.5998 43.1265 21.6601 43.0825 21.6906C43.0384 21.7211 42.9781 21.7102 42.9476 21.6661C42.3756 20.8401 41.6587 20.2754 40.9119 19.879C40.8646 19.8538 40.8466 19.7951 40.8717 19.7478Z" fill="#FFE100" style="fill:#FFE100;fill:color(display-p3 1.0000 0.8833 0.0000);fill-opacity:1;"/>
<path d="M31.1191 9.73438C34.1721 9.73438 37.1035 10.3252 39.3119 11.2092C39.3616 11.2292 39.3858 11.2857 39.3659 11.3355C39.346 11.3852 39.2896 11.4093 39.2398 11.3894C37.0561 10.5152 34.1493 9.92843 31.1191 9.92843C28.6775 9.92843 26.3555 10.1227 24.5611 10.7803C24.5108 10.7987 24.4551 10.7729 24.4366 10.7226C24.4182 10.6723 24.444 10.6166 24.4943 10.5981C26.3222 9.9283 28.6726 9.73438 31.1191 9.73438Z" fill="#FFE100" style="fill:#FFE100;fill:color(display-p3 1.0000 0.8833 0.0000);fill-opacity:1;"/>
<path d="M31.1191 17.3672C34.1721 17.3672 37.1035 17.958 39.3119 18.8421C39.3616 18.862 39.3858 18.9185 39.3659 18.9683C39.346 19.018 39.2896 19.0421 39.2398 19.0222C37.0561 18.148 34.1493 17.5612 31.1191 17.5612C28.6775 17.5612 26.3555 17.7555 24.5611 18.4131C24.5108 18.4315 24.4551 18.4057 24.4366 18.3554C24.4182 18.3051 24.444 18.2494 24.4943 18.231C26.3222 17.5611 28.6726 17.3672 31.1191 17.3672Z" fill="#FFE100" style="fill:#FFE100;fill:color(display-p3 1.0000 0.8833 0.0000);fill-opacity:1;"/>
<path d="M23.6543 3.3636V0.646832C23.6543 0.593245 23.6977 0.549805 23.7513 0.549805C23.8049 0.549805 23.8484 0.593245 23.8484 0.646832V3.3636C23.8484 3.41718 23.8049 3.46062 23.7513 3.46062C23.6977 3.46062 23.6543 3.41718 23.6543 3.3636Z" fill="#FFE100" style="fill:#FFE100;fill:color(display-p3 1.0000 0.8833 0.0000);fill-opacity:1;"/>
<path d="M23.6543 30.4023V28.3324C23.6543 28.2788 23.6977 28.2354 23.7513 28.2354C23.8049 28.2354 23.8484 28.2788 23.8484 28.3324V30.4023C23.8484 30.4559 23.8049 30.4993 23.7513 30.4993C23.6977 30.4993 23.6543 30.4559 23.6543 30.4023Z" fill="#FFE100" style="fill:#FFE100;fill:color(display-p3 1.0000 0.8833 0.0000);fill-opacity:1;"/>
</svg>
